# xmcd
#
# Track frame offsets:
#	150
#	7297
#	23987
#	39756
#	55643
#	72384
#	90745
#	106671
#	123399
#	141243
#	156612
#	171776
#	190954
#	212534
#	232375
#	252316
#	266434
#	290351
#	304977
#
# Disc length: 4286 seconds
#
# Revision: 0
# Processed by: cddbd v1.5.2PL0 Copyright (c) Steve Scherf et al.
# Submitted via: FairStars CD Ripper 1.80
#
DISCID=1710bc13
DTITLE=Various Artist - Ballroom Dance Collection  Samba
DYEAR=2001
DGENRE=Dance
TTITLE0=Var. - Samba Teaching Track 44TM
TTITLE1=Bellini - Cante Comigo 45TM
TTITLE2=Reuben Gomez - Siempre Manana 50TM
TTITLE3=Passion Fruit - Vamanos 50TM
TTITLE4=Natalia Oreiro - Huracan 50TM
TTITLE5=Jennifer Lopez - Ain't It Funny 50TM
TTITLE6=Enrique Iglesias - The Rythm Divine 51TM
TTITLE7=D J Mendez - Razor Tongue 51TM
TTITLE8=Los Chicos - Ooh La La La 51TM
TTITLE9=Giants Of Latin - Give My Life 52TM
TTITLE10=King Africai - La Bomba 52TM
TTITLE11=Thalia - De Donde Soy 52TM
TTITLE12=Spice Girls, Stanver, Rover - Samba 52TM
TTITLE13=Latin Jam - You 'll Be Mine (Party Time) 52TM
TTITLE14=Mujer - Latina 52TM
TTITLE15=Jubaba - Ritmo De Bom Bom 52TM
TTITLE16=Q and Qa - Batuca Gum 52TM
TTITLE17=Sartorello - Move Baby Move 53TM
TTITLE18=SBS - El Taka Taka 53TM
EXTD=
EXTT0=
EXTT1=
EXTT2=
EXTT3=
EXTT4=
EXTT5=
EXTT6=
EXTT7=
EXTT8=
EXTT9=
EXTT10=
EXTT11=
EXTT12=
EXTT13=
EXTT14=
EXTT15=
EXTT16=
EXTT17=
EXTT18=
PLAYORDER=
